<svg xmlns="http://www.w3.org/2000/svg" width="336.368" height="336" viewBox="0 0 336.36792452830184 336"><path fill="none" stroke="#000" d="M52.5 260h280M52.5 220h280M52.5 180h280M52.5 140h280M52.5 100h280M52.5 60h280M52.5 20h280" opacity=".3"/><path fill="none" stroke="#000" d="M86.84 266v-6" stroke-width="2"/><path fill="#80f6ff" d="M68.35 260V60h36.98v200"/><path fill="#80f6ff" stroke="#000" d="M139.67 266v-6" stroke-width="2"/><path fill="#80f6ff" d="M121.179 260v-80h36.981v80"/><path fill="#80f6ff" stroke="#000" d="M192.5 266v-6" stroke-width="2"/><path fill="#80f6ff" d="M174.009 260V100h36.982v160"/><path fill="#80f6ff" stroke="#000" d="M245.33 266v-6" stroke-width="2"/><path fill="#80f6ff" d="M226.84 260V140h36.981v120"/><path fill="#80f6ff" stroke="#000" d="M298.16 266v-6" stroke-width="2"/><path fill="#80f6ff" d="M279.67 260V100h36.981v160"/><path fill="#80f6ff" stroke="#000" d="M52.5 260h280M52.5 260V20" stroke-width="2"/></svg>
